<svg xmlns="http://www.w3.org/2000/svg" viewBox="0 0 2287.72 1146.7"><defs><style>.cls-1{fill:#6c9672;}.cls-2{fill:#fff;}.cls-3{opacity:0.2;}.cls-4{fill:#8ab291;}</style></defs><g id="Layer_2" data-name="Layer 2"><g id="Map"><polygon class="cls-1" points="297.39 423.58 313.22 414.05 338.66 406.23 370.87 414.36 390.1 425.93 399.44 425.93 409.03 434.37 411.91 428.12 419.69 423.43 419.69 414.04 399.44 396.21 390.1 396.21 370.87 384.64 338.66 376.51 313.22 384.32 295.56 394.96 284.12 408.73 290.36 419.36 297.39 423.58"/><polygon class="cls-1" points="418.66 102.81 442.04 102.81 454.51 118.76 460.21 140.35 461.5 147.13 465.93 140.97 460.21 110.63 454.51 89.04 442.04 73.09 418.66 73.09 398.92 73.09 384.36 70.91 371.26 68.94 371.26 98.67 398.92 102.81 418.66 102.81"/><polygon class="cls-1" points="640.16 354.57 648.77 349.39 648.77 333.03 638.74 337.39 630.02 341.19 620.22 350.85 626.41 354.57 640.16 354.57"/><polygon class="cls-1" points="763.04 367.12 763.04 359.93 763.04 351.17 748.24 360.08 759.93 367.12 763.04 367.12"/><polygon class="cls-1" points="467.49 32.42 480.47 31.18 480.47 25.86 460.99 11.32 463.04 31.27 467.49 32.42"/><polygon class="cls-1" points="398.66 61.99 380.75 51.19 382.82 61.99 398.66 61.99"/><polygon class="cls-1" points="710.58 196.02 710.58 166.31 704.31 170.98 699.67 174.44 699.67 188.51 709.68 196.7 710.58 196.02"/><path class="cls-1" d="M638.9,429.68l-20.27-4.06,16.64-3.76L623.83,415H594.75l-28.57-2.5H542.81l-22.34-5.32-21.82,13.77-54-4.38-16.1,9.69L421.26,435l-6.84,4.12-4.07,2.45-3.63-2.19V469.1l3.63,2.19,10.91-6.57,7.28-8.75,16.1-9.7,54,4.38,21.82-13.77,22.34,5.32h23.37l28.57,2.5h24.09l-.21,10.64,20.27,4.07s32.72,9.69,31.17,8.75V438.45l-4.68-1.11C656.67,435,638.9,429.68,638.9,429.68Z"/><polygon class="cls-1" points="416.58 704.32 396.33 716.52 345.43 731.54 322.57 723.4 300.23 718.71 276.86 724.03 228.04 735.29 205.18 738.41 194.38 723.64 181.79 739.98 159.98 739.98 148.04 732.79 135.57 735.92 124.66 739.98 115.57 734.5 102.58 742.32 88.3 750.93 73.24 750.93 65.7 759.05 65.7 764.53 48.83 766.26 29.61 772.83 20.78 786.9 22.34 804.1 7.27 804.42 6.24 791.28 0 769.39 0 799.11 6.24 821 7.27 834.14 22.34 833.82 23.05 813.02 29.61 802.55 48.83 795.98 65.7 794.27 65.7 788.78 73.24 780.65 88.3 780.65 102.58 772.05 115.57 764.23 124.66 769.71 135.57 765.63 148.04 762.52 159.98 769.71 181.79 769.71 194.38 753.36 205.18 768.14 228.04 765.01 276.86 753.75 300.23 748.44 322.57 753.13 345.43 761.26 396.33 746.25 416.58 734.04 460.74 734.04 471.12 718.72 471.12 689 460.74 704.32 416.58 704.32"/><polygon class="cls-1" points="302.31 480.05 302.31 490.37 310.1 495.06 320.5 498.81 328.54 493.97 328.54 465.89 337.12 462.22 352.17 462.22 352.17 432.5 337.12 432.5 310.1 444.07 310.1 450.01 328.54 464.25 319.06 469.95 319.06 469.95 310.1 475.35 302.31 480.05"/><polygon class="cls-1" points="816.54 278.92 800.45 285.33 773.43 281.42 773.43 286.11 758.89 294.86 741.23 289.23 742.78 280.79 732.91 274.85 703.31 268.28 660.72 271.4 640.98 278.29 640.98 286.42 627.65 290.69 638.74 297.37 638.74 315.92 639.21 316.71 640.98 316.15 640.98 308.01 660.72 301.13 703.31 298 732.91 304.57 740.34 309.04 741.23 318.95 748.82 321.37 752.13 320.2 755.86 323.62 758.89 324.59 773.43 315.83 773.43 311.14 801.49 315.2 816.54 308.63 832.52 305.74 832.52 292.68 832.52 276.02 816.54 278.92"/><path class="cls-1" d="M753.18,390.9V399l-6.76,21.22h-36.8L690.92,409l-30.21-12.47,4.68,9.7v6.88l-13,7.83s6.17,6.36,11.24,11.42l-2.94-6.1,30.21,12.46L709.62,450h36.8l6.76-21.22v-8.14l15.06-6.56,14-17.2V367.12l-14,17.21Z"/><polygon class="cls-1" points="434.77 639.26 434.77 609.55 428.84 620.85 428.54 621.43 431.13 634.25 433.49 641.68 434.77 639.26"/><polygon class="cls-1" points="209.85 624.88 204.65 592.34 204.65 622.06 205.53 627.48 209.85 624.88"/><polygon class="cls-1" points="245.17 368.7 252.44 357.44 262.31 343.98 263.36 343.35 263.36 333.03 275.82 314.89 275.82 306.13 262.31 314.26 252.44 327.71 245.17 338.97 240.5 350.55 235.3 350.55 235.3 369.63 235.3 377.24 242.49 375.34 245.17 368.7"/><polygon class="cls-1" points="254.53 447.52 269.06 456.27 272.94 472.72 289.32 485.37 289.32 504.45 289.32 514.77 296.05 521.03 302.31 517.27 314.78 509.76 314.78 502.26 314.78 501 300.76 501.94 300.76 495.68 289.32 485.05 289.32 474.73 289.32 455.65 272.94 442.99 269.06 426.55 254.53 417.8 248.29 403.41 247.65 402.4 232.19 378.07 232.19 407.79 248.29 433.14 254.53 447.52"/><polygon class="cls-1" points="802 259.52 782.77 267.65 802 267.5 802 259.52"/><polygon class="cls-1" points="649.81 89.04 644.62 104.06 650.76 105.68 649.81 89.04"/><polygon class="cls-1" points="1137.66 227.84 1116.98 222.69 1116.98 252.41 1137.66 257.56 1148.25 249.37 1155.06 249.37 1155.06 219.64 1148.25 219.64 1137.66 227.84"/><polygon class="cls-1" points="1194.16 218.27 1201.97 222.99 1194.67 225.87 1182.57 227.39 1190 231.87 1187.1 238.63 1177.9 251.15 1180.54 252.75 1180.54 256.85 1172.73 259.73 1166.67 263.38 1152.05 257.91 1139.44 253.35 1130.87 248.19 1130.87 277.91 1139.44 283.08 1152.05 287.63 1166.67 293.1 1172.73 289.45 1180.54 286.57 1180.54 282.47 1177.9 280.88 1187.1 268.34 1190 261.59 1189.24 256.27 1194.67 255.59 1201.97 252.71 1202.73 245.57 1202.73 215.85 1194.16 218.27"/><polygon class="cls-1" points="1547.31 254.25 1558.63 254.25 1579.77 254.25 1600.55 254.47 1614.69 259.29 1635.11 266.54 1648.14 278.24 1647.4 290.24 1650.11 293.05 1659.46 285.5 1659.46 278.83 1663.63 276.31 1663.63 298.34 1663.63 306.04 1659.46 308.56 1659.46 315.22 1650.11 322.78 1647.4 319.97 1648.14 307.97 1635.11 296.26 1614.69 289.01 1600.55 284.19 1579.77 283.98 1558.63 283.98 1547.31 283.98 1543.13 277.9 1543.13 248.18 1547.31 254.25"/><polygon class="cls-1" points="1619.51 968.87 1619.51 980.41 1608.01 970.76 1608.01 952.48 1597.2 947.25 1585.35 947.25 1579.77 940.95 1573.92 934.8 1562.68 928.04 1571.22 928.04 1583.04 924.25 1584.15 923.07 1573.49 908.61 1561.63 899.38 1561.63 929.1 1564.08 931 1562.68 957.76 1573.92 964.52 1579.77 970.67 1585.35 976.97 1597.2 976.97 1608.01 982.21 1608.01 1000.47 1619.51 1010.14 1619.51 998.59 1622.65 985.15 1628.21 981.81 1628.21 952.08 1622.65 955.44 1619.51 968.87"/><polygon class="cls-1" points="1584.99 892.46 1577.67 900.22 1576.98 906.1 1584.99 906.16 1584.99 892.46"/><polygon class="cls-1" points="1113.86 385.77 1120.1 380.07 1120.1 350.35 1111.28 358.4 1100.94 359.76 1105.29 371.2 1116.58 380.72 1113.81 385.73 1113.86 385.77"/><polygon class="cls-1" points="1158.06 364.47 1158.06 391.38 1158.06 394.19 1170.04 391.01 1173.06 387.06 1178.61 387.06 1180.8 389.69 1180.8 412.16 1183.65 418.95 1190.63 418.09 1192.22 412.57 1197.52 412.57 1202.95 409.3 1204.33 403.46 1213.16 401.78 1210.88 406.79 1211.32 406.81 1215.09 403.09 1213.66 394.24 1222.49 391.65 1222.49 386.79 1231.82 388.16 1236.86 392.41 1242.91 393.78 1242.91 390.14 1246.19 390.14 1251.99 395.45 1261.57 397.88 1274.18 400.91 1276.56 402.87 1288.05 400.42 1289.26 401.15 1288.69 413.33 1295.98 420.39 1305.95 422.74 1305.95 419.55 1305.68 412.88 1315.54 416.06 1320.32 417.46 1318.81 410.48 1312.01 401.53 1312.01 395.6 1315.78 395.6 1326.37 395.6 1334.95 392.57 1330.41 388.62 1323.35 388.62 1315.54 386.33 1304.69 382.85 1299.13 386.18 1305.95 389.83 1305.95 393.02 1294.35 390.29 1289.43 387.33 1291.83 385.88 1291.83 381.78 1299.39 381.78 1295.6 375.25 1288.05 370.7 1272.41 374.04 1263.08 375.4 1251.48 378.44 1244.92 382.39 1244.92 386.94 1237.62 385.88 1231.31 385.73 1225.76 380.87 1222.49 377.38 1218.45 377.38 1210.88 377.08 1213.16 372.06 1204.33 373.73 1202.95 379.58 1197.52 382.85 1192.22 382.85 1190.63 388.36 1183.65 389.22 1180.8 382.44 1181.05 382.28 1185.67 359.46 1182.14 361.58 1178.61 357.33 1173.06 357.33 1170.04 361.28 1162.02 363.42 1158.06 364.47"/><polygon class="cls-1" points="1367.65 426.98 1359.51 429.88 1355.59 440.24 1352.87 451.68 1348.66 458.94 1330.87 466.01 1330.87 472.81 1336.69 476.31 1350.87 484.86 1352.87 481.4 1355.59 469.96 1359.51 459.6 1367.65 456.7 1377.01 456.7 1381.68 456.7 1378.52 447.5 1383.33 440.96 1391.78 438.41 1398.4 442.41 1411.69 434.42 1395.7 426.98 1377.01 426.98 1367.65 426.98"/><polygon class="cls-1" points="1177.17 519.51 1184.22 502.52 1184.22 501.19 1184.91 500.85 1189.05 490.89 1200.93 485.98 1201.24 486.07 1204.72 471.04 1207.61 458.49 1200.93 456.25 1189.05 461.17 1177.17 489.79 1164.18 504.77 1155.63 521.98 1161.95 536.06 1154.15 546.58 1155.26 557.09 1158.65 558.41 1155.63 551.7 1164.18 534.49 1177.17 519.51"/><polygon class="cls-1" points="1218.45 444.46 1223.46 444.93 1239.88 438.88 1254 433.11 1251.48 428.39 1242.66 428.39 1235.34 424 1232.91 418.8 1231.82 417.88 1222.49 416.51 1222.49 421.37 1213.66 423.96 1215.09 432.81 1211.14 436.71 1218.45 444.46"/><polygon class="cls-1" points="1180.56 351.82 1191.06 351.82 1190.26 365.38 1191.22 362.19 1202.57 356.88 1193.23 341.84 1196.76 329.39 1189.45 322.1 1180.12 322.1 1176.59 328.48 1176.59 339.11 1178.86 349.28 1180.56 351.82"/><polygon class="cls-1" points="1035.63 306.01 1035.63 309.26 1035.63 310.71 1050.26 320.13 1068.67 322.41 1090.43 333.74 1102.2 334.06 1109.02 338.16 1127.42 330.41 1135.74 338.46 1135.74 342.26 1146.09 341.35 1164.49 346.06 1164.49 352.13 1163.07 358.64 1168.52 355.36 1168.52 348.52 1161.96 333.95 1164.49 322.41 1164.49 316.33 1146.09 311.63 1135.74 312.54 1135.74 308.74 1127.42 300.69 1124.13 302.07 1109.02 308.43 1102.2 304.34 1082.73 303.8 1080.02 303.73 1080.02 311.63 1055.3 311.32 1050.51 306.77 1045.21 306.77 1044.86 306.63 1032.61 301.9 1037.07 295.88 1024.2 288.13 1024.2 305.56 1029.08 303.73 1035.63 306.01"/><polygon class="cls-1" points="1464.91 699.73 1464.91 727.01 1471.95 722.76 1481.61 705.76 1468.25 705.76 1464.91 699.73"/><path class="cls-1" d="M1250,288.39h3.11l.25-11,6.07,1.27-.1,9.75,6.55,2.73,3.18.54,9.43,1.59-2.27,4.4L1285,303l11.34-4.11,12.6-3.95,7.83-2.88.24.61v-3.54l16.65-8.81,6.16.38-.45,9.41,9.54,3.87.39,5.21,4,2.44,7.56-4.56,14.64,2.88v-5.31L1363.7,286l-14.64-2.73-3.67-2.21h0l-5.41-3.26v-4.25l9.57-8.5,11.62-7,15.12-1.82,13.37-2.43v-5.92l-11.85-4.11-9.84,5.93-9.58,2.42-19.49-1.19-5.22-.32-7,3.69-9.67,5.11v6.69l-2.26,5.92-11.35-3.19-9.33,5.62-15.89,5.92-8.08-1.67h-6.8s-4.28-2.57-4.54-3.33,3.79-2.59,3.79-2.59l3.78-8.05L1279,251.64l-8.83-2.43h-9.33l-11.6-2.42.56,14.91,4.23,2.55-11.22,2-4.42,2.66v8.66l11.61,5.77Z"/><polygon class="cls-1" points="2028.88 637.1 2040.75 644.25 2057.83 636.89 2060.51 635.94 2079.74 624.36 2085.55 626.85 2107.21 618.78 2123.56 603.13 2116.12 598.67 2103.5 606.26 2091.62 613.42 2087.9 608.5 2095.34 601.34 2079.74 594.64 2060.06 606.48 2048.92 614.98 2041.5 614.98 2028.88 607.38 2025.16 600.67 2010.69 601.34 1980.98 590.16 1959.08 594.41 1907.47 610.28 1917.49 618.11 1914.53 624.6 1925.29 624.6 1932.34 627.06 1928.99 645.17 1920.1 654.33 1916.38 658.14 1901.53 667.09 1874.79 680.94 1831.35 692.79 1823.56 684.96 1805.92 686.87 1792.74 694.8 1774.18 694.8 1774.18 714.71 1763.41 726.55 1756.13 725.34 1742.06 722.3 1742.06 748.34 1742.06 752.02 1750.05 754.04 1763.41 756.28 1774.18 744.43 1774.18 724.53 1792.74 724.53 1805.92 716.59 1823.56 714.69 1831.35 722.52 1874.79 710.66 1901.53 696.8 1916.38 687.86 1928.99 674.89 1932.34 656.79 1932.34 632.36 1959.08 624.13 1980.98 619.88 2010.69 631.07 2025.16 630.4 2028.88 637.1"/><polygon class="cls-1" points="1481.78 731.15 1469.48 735.49 1456.74 739.97 1451.17 754.28 1451.17 765 1451.17 770.16 1442.99 778.65 1437.8 786.25 1437.68 786.18 1427.03 779.76 1427.03 809.49 1437.8 815.98 1442.99 808.38 1451.17 799.88 1451.17 784.01 1456.74 769.69 1479.39 758.97 1485.33 750.92 1481.78 731.15"/><polygon class="cls-1" points="1739.28 712.67 1750.45 712.67 1753.01 707.33 1760.81 707.33 1760.81 702.63 1755.24 699.28 1755.24 696.15 1764.15 690.78 1756.35 682.95 1739.28 682.95 1739.28 678.93 1752.64 674.46 1752.64 670.65 1725.54 670.65 1713.29 669.54 1713.29 681.62 1728.14 686.09 1732.6 693.02 1715.89 693.02 1705.87 699.05 1699.92 712.03 1691.76 729.91 1659.82 739.29 1625.66 743.77 1606.73 738.63 1581.48 733.26 1558.46 721.2 1545.84 723.88 1538.42 736.4 1538.42 750.7 1526.53 762.33 1509.08 763.44 1486.81 763.44 1479.39 758.97 1479.39 788.69 1486.81 793.17 1509.08 793.17 1526.53 792.05 1538.42 780.42 1538.42 766.11 1545.84 753.59 1558.46 750.92 1581.48 762.99 1606.73 768.35 1625.66 773.49 1659.82 769.02 1691.76 759.63 1699.92 741.74 1705.87 728.77 1715.89 722.74 1732.6 722.74 1731.97 700.39 1739.69 700.39 1739.28 708.65 1739.28 712.67"/><polygon class="cls-1" points="1436.83 294.62 1441.18 294.62 1442.63 294.62 1442.63 290.33 1442.63 289.76 1449.93 287.48 1454.98 297.2 1460.01 297.2 1467.84 292.49 1481.96 289.45 1484.2 290.81 1485.24 281.71 1473.38 283.38 1461.79 281.56 1451.7 272.14 1443.88 259.85 1440.1 262.12 1443.63 271.23 1432.79 282.01 1436.83 294.62"/><polygon class="cls-1" points="1454.88 683.62 1470.85 693.23 1472.97 692.8 1479.39 684.3 1471.95 674.46 1480.87 661.49 1470.85 663.5 1454.88 653.89 1430.38 659.26 1381.74 657.25 1350.93 673.12 1342.81 674.37 1329.02 676.48 1323.08 669.32 1323.08 699.05 1329.02 706.19 1350.93 702.84 1381.74 686.97 1430.38 688.98 1454.88 683.62"/><polygon class="cls-1" points="2276.51 583.01 2270.94 590.62 2270.94 596.19 2270.94 601.12 2260.54 596.66 2252.38 590.16 2243.84 590.16 2240.51 579.21 2231.59 581.21 2231.59 591.28 2219.35 600.9 2209.31 590.83 2204.12 597.09 2212.65 607.6 2212.65 621.01 2211.81 623.05 2212.06 623.31 2208.94 629.97 2200.77 625.04 2175.9 628.84 2143.97 639.13 2139.52 629.74 2102.76 625.95 2082.34 644.94 2087.9 653.66 2081.22 660.37 2068.23 675.57 2057.46 675.57 2047.44 686.75 2034.44 686.75 2030.41 689.18 2014.02 699.05 2014.02 728.77 2034.44 716.47 2047.44 716.47 2057.46 705.29 2068.23 705.29 2081.22 690.09 2087.9 683.39 2082.34 674.67 2102.76 655.67 2139.52 659.46 2143.97 668.84 2175.9 658.57 2200.77 654.76 2208.94 659.69 2212.65 650.74 2212.65 623.91 2219.35 630.62 2231.59 621 2231.59 610.95 2240.51 608.93 2243.84 619.88 2252.38 619.88 2260.54 626.37 2270.94 630.84 2270.94 620.33 2276.51 612.74 2287.65 608.27 2287.65 578.54 2276.51 583.01"/><polygon class="cls-1" points="1656.96 348.06 1658.72 343.06 1671.59 331.36 1671.69 330.92 1675.37 316.33 1678.39 317.4 1678.39 306.91 1662.76 316.33 1662.76 326.66 1652.42 341.08 1646.37 350.5 1656.96 354.6 1656.96 348.06"/><polygon class="cls-1" points="1880 365.25 1889.64 371.06 1892.91 371.06 1893.23 345.49 1863.29 355.63 1840.63 365.25 1840.63 369.27 1868.11 365.25 1880 365.25"/><polygon class="cls-1" points="1341.65 592.62 1355.75 595.76 1365.04 595.76 1355.75 590.17 1358.72 576.31 1341.65 562.89 1311.19 542.33 1316.39 536.96 1303.77 529.36 1291.89 522.2 1291.89 501.64 1283.16 499.51 1273.32 505.43 1273.32 531.15 1276.65 533.15 1283.16 529.23 1291.89 531.35 1291.89 538.02 1303.77 539.2 1298.58 547.25 1306.74 553.95 1303.77 559.08 1303.77 559.08 1301.17 563.56 1286.69 565.58 1279.64 569.83 1252.91 569.83 1232.86 561.33 1196.1 556.63 1184.22 551.77 1168.26 545.24 1168.78 562.4 1202.41 575.64 1188.68 580.34 1133.36 589.51 1066.54 586.83 1036.08 592.18 1016.4 611.19 997.47 624.38 979.65 627.97 930.27 624.6 903.54 640.7 890.18 635.78 864.54 644.16 802.73 644.16 782.14 631.75 772.11 631.75 759.12 623.94 759.12 653.66 772.11 661.48 782.14 661.48 802.73 673.89 864.54 673.89 890.18 665.51 903.54 670.43 930.27 654.34 979.65 657.69 997.47 654.1 1016.4 640.92 1036.08 621.91 1066.54 616.54 1133.36 619.23 1188.68 610.07 1202.41 605.37 1201.88 587.1 1232.86 591.06 1252.91 599.55 1279.64 599.55 1286.69 595.29 1301.17 593.29 1306.74 583.67 1306.74 560.87 1311.41 563.68 1311.19 572.04 1341.65 592.62"/><polygon class="cls-1" points="1358.63 621.63 1375.06 606.94 1359.1 606.94 1355.75 595.76 1355.75 619.9 1358.63 621.63"/><polygon class="cls-1" points="845.51 438.84 860.63 444.3 874.26 452.5 877.03 456.6 901.23 463.29 913.33 469.36 910.59 474.14 921.91 469.09 928.73 461.05 920.4 453.91 909.05 447.07 913.33 439.63 901.23 433.56 877.03 426.88 874.26 422.78 860.63 414.58 845.51 409.12 836.93 397.57 831.13 379.5 831.13 409.23 836.93 427.29 845.51 438.84"/><polygon class="cls-1" points="1719.24 337.29 1713.19 342.15 1719.24 345.79 1719.24 337.29"/><polygon class="cls-1" points="1746.73 319.82 1745.72 324.38 1746.73 324.38 1746.73 319.82"/><polygon class="cls-1" points="1682.67 318.91 1679.15 324.68 1682.4 326.64 1682.67 318.91"/><polygon class="cls-1" points="1693.51 333.34 1690.62 324.61 1690.77 331.68 1693.51 333.34"/><polygon class="cls-1" points="1873.81 311.32 1869.53 319.37 1873.81 318.89 1873.81 311.32"/><polygon class="cls-1" points="2127.78 504.63 2128.37 492.46 2119.46 496.04 2125.78 503.42 2127.78 504.63"/><polygon class="cls-1" points="1965.76 411.98 1958.71 418.01 1965 427.06 1965.76 411.98"/><polygon class="cls-1" points="1941.63 650.17 1932.56 665.69 1929.43 679.76 1923.85 676.4 1916.18 681.02 1910.6 693.62 1910.6 699.28 1904.15 695.39 1896.96 695.39 1896.06 722.09 1890.03 721.11 1882.71 725.53 1882.72 719.44 1875.22 714.92 1868.77 717.13 1872.43 722.27 1863.89 720.49 1863.89 732.02 1858.66 737.07 1852.03 741.89 1843.24 743.73 1832.16 756.81 1821.97 756.55 1804.36 752.66 1789.02 752.66 1791.38 744.84 1775.78 740.78 1766.04 734.9 1766.04 764.64 1775.78 770.51 1788.76 773.88 1789.02 782.38 1804.36 782.38 1821.97 786.27 1832.16 786.52 1843.24 773.46 1852.03 771.62 1858.66 766.8 1865.89 759.82 1865.89 754.41 1865.89 750.63 1872.43 751.99 1868.77 746.85 1875.22 744.65 1882.72 749.16 1882.71 755.25 1890.03 750.84 1904.32 753.15 1904.32 725.23 1910.6 729 1910.6 723.33 1916.18 710.74 1923.85 706.12 1929.43 709.48 1932.56 695.4 1941.63 679.89 1950.69 668.13 1950.69 638.4 1941.63 650.17"/><polygon class="cls-1" points="1322.33 1082.32 1345.21 1082.58 1355.61 1076.31 1356.08 1105.74 1345.21 1112.3 1322.98 1112.3 1317.06 1109.88 1317.06 1080.15 1322.33 1082.32"/><polygon class="cls-1" points="1030.88 664.29 969.25 680.38 958.49 677.47 952.17 677.47 952.17 707.2 958.49 707.2 969.25 710.1 1030.88 694.01 1053.91 682.61 1053.91 652.88 1030.88 664.29"/><polygon class="cls-1" points="1355.61 1010.73 1356.26 1035.38 1367.2 1024.59 1369.56 1022.26 1373.59 1013.86 1355.61 1010.73"/><polygon class="cls-1" points="1520.12 969.97 1527.08 967.1 1527.08 937.38 1507.68 945.36 1513.6 968.29 1520.12 969.97"/><polygon class="cls-1" points="1536.29 994.78 1543.39 1005.88 1533.22 1015.99 1526.83 1038.64 1511.46 1047.9 1474.34 1061.43 1412.13 1066.71 1401.49 1073.11 1388.24 1066.28 1368.38 1063.99 1357.26 1054.73 1353.24 1038.36 1353.24 1068.09 1357.26 1084.46 1368.38 1093.72 1388.24 1095.99 1401.49 1102.84 1412.13 1096.42 1474.34 1091.16 1511.46 1077.63 1526.83 1068.37 1533.22 1045.72 1543.39 1035.61 1544 1019.16 1562.08 1006.69 1562.08 1001.71 1570.59 988.76 1570.59 959.03 1562.08 971.99 1562.08 976.97 1536.29 994.78"/><polygon class="cls-1" points="1367.2 1000.91 1367.2 988.09 1351.12 975.55 1342.37 976.83 1326.53 967.29 1305 968.58 1290.81 957.47 1269.06 953.76 1258.89 947.64 1258.89 977.37 1269.06 983.48 1290.81 987.18 1305 998.29 1326.53 997.02 1342.37 1006.55 1351.12 1005.27 1356.81 1009.72 1367.2 1000.91"/><polygon class="cls-1" points="1528.06 1107.94 1526.64 1109.27 1523.05 1112.73 1518.5 1116.05 1512.46 1117.31 1504.85 1126.29 1497.85 1126.11 1485.75 1123.44 1475.21 1123.44 1476.84 1118.07 1466.12 1115.28 1459.43 1111.24 1459.43 1131.67 1466.12 1135.7 1475.04 1138.02 1475.21 1143.86 1485.75 1143.86 1497.85 1146.53 1504.85 1146.7 1512.46 1137.73 1518.5 1136.47 1523.05 1133.15 1528.02 1128.36 1528.02 1124.64 1528.02 1122.04 1528.06 1107.94"/><polygon class="cls-1" points="1568.05 1072.03 1561.82 1082.7 1559.67 1092.36 1555.83 1090.06 1550.57 1093.23 1546.73 1101.88 1546.73 1105.77 1542.3 1103.1 1536.7 1102.95 1536.75 1121.44 1542.42 1123.6 1546.73 1126.19 1546.73 1122.29 1550.57 1113.64 1555.83 1110.47 1559.67 1112.78 1561.82 1103.11 1568.05 1092.45 1574.27 1084.38 1574.27 1063.95 1568.05 1072.03"/><path class="cls-1" d="M574,143.89l-2.54-1.53c0-8.44.2-18.59.2-18.59.49.3-5.48,1.56-5.48,1.56l-7.78-6.23-5.33-1.67,0-3.11s4.7-.19,4.7-.29v-3.89s-5.66-8.87-6.16-9.16-7.77-6.83-7.77-6.83L546,91.52l-5-1.65-7.44-2.73-7.66-.85-1.08-2.08v29.73l1.08,2.08,7.66.85,7.44,2.72,5,1.66-2.11,2.62s7.29,6.54,7.77,6.83,6.16,9.16,6.16,9.16v3.89c0,.11-4.7.3-4.7.3l0,3.1,5.33,1.68,3.4,2.7v12.64l4.88,5,7.32,4.41L586.92,178,594.6,181V151.24Z"/><path class="cls-1" d="M1617.93,791.53l-12.56,4.09V802l3.66,9.77-3.83,9.64-2.61-1.57V805.8l-16.39-4.4v29.73l8.78,2.36-2.51,3.18s-11.84,2.52-13.93,2.93-5.93-3.56-5.93-3.56l4-7-12.31-5.18v29.73l12.31,5.17-4,7s3.84,4,5.93,3.58,13.93-2.93,13.93-2.93l6.29-8V834.5l3.83,1v14.05l2.61,1.58,3.83-9.66-3.66-9.77v-6.39l12.56-4.09,7.67-4.62V786.91Z"/><polygon class="cls-1" points="1404.42 746.5 1404.42 775.67 1409.29 767.92 1404.42 746.5"/><polygon class="cls-1" points="1416.63 842.88 1411.31 839.67 1414.18 837.95 1422.54 825.56 1422.54 810.65 1422.54 795.84 1414.18 808.22 1403.37 814.73 1394.31 807.6 1394.31 837.32 1397.1 839.51 1397.1 848.23 1404.06 865.03 1416.63 872.59 1435.1 882.45 1435.1 876.15 1435.1 852.73 1416.63 842.88"/><polygon class="cls-1" points="1520.51 823.5 1506.91 831.7 1482.85 839.04 1471 842.41 1456.7 829.17 1442.41 820.56 1442.41 850.29 1456.7 858.9 1471 872.13 1482.85 868.77 1506.91 861.41 1520.51 853.22 1536.19 848.83 1536.19 819.1 1520.51 823.5"/><polygon class="cls-1" points="1658.63 825.03 1667.63 821.03 1673.63 812.03 1673.63 832.03 1667.99 843.85 1654.69 853.16 1644.94 849.17 1644.94 835.43 1658.63 825.03"/><polygon class="cls-1" points="1348.7 730.95 1357.7 726.95 1363.7 717.95 1363.7 737.95 1358.7 743.95 1347.7 748.95 1337.7 744.95 1337.7 725.95 1348.7 730.95"/><polygon class="cls-2" points="993.08 648.09 1005.34 644.73 1020.56 649.43 1053.98 649.43 1053.98 653.23 1030.95 664.64 969.32 680.73 958.56 677.82 952.25 677.82 952.25 668.88 958.38 665.19 963.38 658.37 972.3 656.58 987.79 654.39 993.08 648.09"/><polygon class="cls-2" points="1117.14 217.95 1116.88 222.97 1137.57 228.13 1148.15 219.92 1154.96 219.93 1154.96 214.76 1150.05 211.8 1141.48 213.93 1136.17 210.74 1127.29 213.66 1127.29 216.59 1117.14 217.95"/><polygon class="cls-2" points="1131.27 248.31 1139.84 253.47 1152.45 258.03 1167.08 263.49 1173.13 259.85 1180.94 256.96 1180.94 252.86 1178.3 251.26 1187.5 238.74 1190.4 231.98 1182.97 227.5 1195.08 225.99 1202.38 223.1 1194.56 218.39 1203.13 215.96 1196.08 211.71 1179.68 215.2 1169.35 223.25 1169.35 226.89 1171.49 234.71 1165.57 240.41 1158 238.59 1145.39 241.93 1149.17 246.94 1142.62 247.85 1135.56 246.03 1131.27 248.31"/><polygon class="cls-2" points="561.9 143.75 568.52 147.75 577.58 144.39 588.39 150.89 594.67 163.49 586.99 160.55 574.1 156.14 566.78 151.74 561.9 146.69 561.9 143.75"/><path class="cls-2" d="M553.15,126.58l0,3.1,5.33,1.67,7.78,6.23s6-1.26,5.48-1.56-8.3-14.86-8.3-14.86l-4.32-10.27-6.64-6.33-8.73-5.27-10.52-2.82h-8.41l1.08,2.08,7.66.84,7.44,2.73,5,1.66-2.11,2.63s7.29,6.52,7.77,6.82,6.16,9.16,6.16,9.16v3.89C557.85,126.39,553.15,126.58,553.15,126.58Z"/><path class="cls-2" d="M7.29,804.52l15.06-.31L20.79,787l8.83-14.07,19.22-6.57,16.88-1.72v-5.48L73.26,751H88.32l14.28-8.61,13-7.82,9.09,5.48,10.9-4.07,12.48-3.12L160,740.09h21.81l12.59-16.34,10.8,14.77,22.86-3.13,48.81-11.26,23.38-5.32,22.33,4.7,22.86,8.13,50.91-15,20.25-12.19h44.15l10.39-15.33L451.4,659.7l-15.06-9.08-5.19-16.26-2.6-12.83,6.23-11.88-.52-14.08-15.59-12.51V562.42l-5.18-15.64-17.14-5.95L381.8,527.69l-6.23-8.76-17.15-10.32H323.1v-8.76l-13-4.69-7.8-4.69V480.15l16.09-9.69,10.14-6.11-18.43-14.24v-5.93l27-11.58h15.06l-17.4-10.48-29.35,6.42-15.06-9.07-6.24-10.64,11.44-13.76,17.65-10.64,25.45-7.82,32.21,8.14,19.23,11.57h9.34l20.25,17.82v9.39l-7.78,4.7-5.2,11.26,3.64,2.18,10.91-6.56,7.27-8.76,16.1-9.7,54,4.38,21.81-13.76,22.35,5.31H566.2l28.57,2.51h29.08L635.28,422l-16.63,3.75,20.27,4.07s32.72,9.7,31.17,8.76S652.42,421,652.42,421l13-7.82v-6.88l-4.67-9.7,30.21,12.47,18.7,11.26h36.8l6.75-21.23V391l15.07-6.57,14-17.21H760l-11.69-7,14.79-8.91v-21l-10.9-10-20.26,7.19H708l-6.23,9.38-16.77,7H658.14l-18,10.82H626.43l-6.2-3.73,9.81-9.66,18.75-8.15-10-17.12V297.47l-11.09-6.67L641,286.53v-8.14l19.73-6.88,42.6-3.13,29.6,6.57,9.87,5.95-1.56,8.44L758.9,295l14.55-8.76v-4.69l28,4.06L816.56,279l16-2.89V263.06L801,267.76H782.79L802,259.62,794.16,240,749.56,233l-18.19-26.59h-9.86l-21.82-17.83V174.54l10.91-8.13-5.72-24.72L695,135.76V121.68l-33.76-13.13-16.61-4.39,5.19-15L645.15,77l-7.8-19.72V34.72L611.91,11.89l-34.8-6.57L554.77,0,536.06,11.26v7.2l-12.72,7.66-10.65-3.91-5.2-10.64L477.89,1.25l-9.35,5.63L461,11.42,480.48,26v5.32l-13,1.25L438.42,25,408.8,22.21,402.57,26l-8.82,8.45v6.88h-13v10l17.91,10.79H382.84l-11.56,7,27.66,4.15h43.12l12.46,16,5.71,21.58L466,141.08,454,157.65l-21.82,13.14-9.87,13.45L405.69,203l-12.46,15-31.69,6.57-64.94,21-13.49,15-10.84,14.66v16l-11,11.26-10.91,14.7-7.26,8.76L235.32,340v10.64h5.19l4.68-11.57,7.27-11.27,9.87-13.45,13.5-8.13V315l-12.46,18.15v27.2l-18.18,14.4-13,3.44,16.1,25.34,6.23,14.38,14.54,8.76L273,443.1l16.39,12.66v29.39l11.44,10.64V502l14-.93v8.75l-23.38,14.08-45.2,4.7-4.66,9.69L222.85,544l-7.27,20-10.91,28.47,5.2,32.53L109.1,685.66,72.22,702.24,44.69,725.69,15.08,747.9,0,769.5l6.23,21.89Z"/><polygon class="cls-2" points="1650.18 293.42 1647.47 290.61 1648.21 278.61 1635.18 266.91 1614.77 259.66 1600.62 254.84 1579.84 254.62 1558.69 254.62 1547.38 254.62 1543.2 248.55 1549.59 244.7 1561.65 247.51 1573.44 247.51 1585.01 242.92 1606.64 245.59 1615.26 245.59 1621.89 247.66 1621.89 251.66 1634.93 255.5 1638.38 260.55 1645.76 260.55 1654.85 267.51 1663.7 268.98 1663.7 276.68 1659.53 279.2 1659.53 285.87 1650.18 293.42"/><polygon class="cls-2" points="1570.08 883.55 1566.76 891.43 1561.7 899.51 1573.56 908.75 1584.72 923.87 1571.29 928.17 1562.76 928.17 1573.99 934.94 1579.84 941.08 1585.42 947.38 1597.27 947.38 1608.08 952.62 1608.08 970.89 1619.58 980.55 1619.58 969.01 1622.72 955.57 1628.29 952.21 1628.29 940.03 1612.08 918.73 1603.19 906.44 1577.05 906.23 1577.74 900.35 1585.06 892.59 1585.06 888.81 1570.08 883.55"/><path class="cls-2" d="M2283.26,566.47h-18.94l-18.93-20.13-25.23-21.45-29-11.63v11.85L2183,528l-10.76-6.48v-9.84l-28.22-7.6-8.54,5.15-9.65-5.82-6.32-7.38,8.91-3.58-7.79-12.29-34.9-7.6-10.76-15-3.72-10.28-8.9-5.36-22.66-11.41-11.88,3.14-5.94,9.84h-19.3V436.8l-18.94-6.49-11.51,6.93L1958.78,418l7-6-5.56-13.19-14.86-9-8.91,5.36-15.23-2.9-12.61-7.61,8.16-6.25-18.93-7.38h-8.18l-9.64-5.81h-11.89l-27.48,4v-4l22.66-9.61,29.94-10.15-1.41-18.28-7.41-9.5-14.88,1.66,4.28-8-13.6-8.2v-7l-12.62,4.55-4.54,6.69-5.55,3.33-14.12,3-18.66-6.37-26.47-4.4-19.18,6.37v12.29l-13.35,2.74,1-4.55-16.64-6.08-12.87,6.53,5.55,10,3,8.2-6.56,7.29-6-3.64,6-4.86L1708,330.45l-2.77-9h-9.33l-5.17,3.12,2.89,8.73-5.79-3.5-8.57-5.16,3.52-5.77-7.3-2.57-3.78,15-12.87,11.69-1.76,5v6.53l-10.59-4.1,6-9.42,10.34-14.42V316.34l15.63-9.42-10.84-9.26-20.42,9.87-9.85,3.5-6.55,10v7.28l-.5,9.11h-5.55L1621,324.83l-10.34-8.95-6.56-7.59-8.07,2.42-2,5.17-8.58,1.52-5.54-3.34,4.79-2.89-10.08-3.34-12.36-2.28h-5.55l-8.57-3.34-4.55-4.55-24.19-.91-9.09,4.25-4.79-4.71-3.78-8.65-3,1.81-8.32,5-8.32-5-14.12,3.05-7.83,4.71h-5l-5-9.73-7.3,2.28v4.86h-5.8l-4-12.61,10.84-10.78-3.53-9.11,3.78-2.27,7.82,12.29,10.09,9.42,11.59,1.83,11.86-1.68-3.78-18.07-12.11-13.06L1458.32,240l-7.81-8.95,7.81-4.71-20.67-8.81L1401.08,210l-18.15,2.43h-21.44l-12.36,5.46-20.42,6.53-19.67.91-21.68-2.12h-22.69l-7.57,8.81-7.82,7.13v7.6l11.6,2.42h9.33l8.83,2.44-12.61,13-3.78,8.05s-4,1.82-3.79,2.59,4.54,3.34,4.54,3.34h6.8l8.08,1.66,15.89-5.92,9.33-5.61,11.35,3.18,2.26-5.92v-6.68l16.65-8.81,24.71,1.52,9.58-2.43,9.84-5.92,11.84,4.1v5.92l-13.36,2.43L1361.25,258l-11.62,7-9.57,8.5v4.25l9.07,5.47,14.64,2.73,11.85,8.66v5.31L1361,297.05l-7.56,4.56-4-2.43v-5.62l-12.61-4.41-4,5.17-8.83,5.31-4.78-2-2.27-5.62-7.83,2.88-12.6,3.95L1285.1,303l-8.84-5.32,2.27-4.41-12.61-2.12-6.55-2.74H1250v-5l-11.61-5.78V269l4.42-2.66,11.22-2.05-5.29-3.19-8.58,1.52-6,3.64v3.34l-7.85,2.87-12.82-5.3-17.15-2.73-13.62,4.86-17.15-3.34-14.88,1.37-8.31-3.8h-7.06l-8.58-6.07-5.29,3.19,2.76,7.13v9.12l-9.32,5.61L1102,285.66l-16.39-9.87L1070,266.38h-7.58L1043,278.07l-11.35,2.27-7.4,7.8,12.87,7.75-4.46,6,12.6,4.86h5.3l4.79,4.56,24.72.3v-7.9l22.18.61,6.81,4.1,18.42-7.75,8.31,8.05v3.8l10.34-.91,18.41,4.71v6.07L1162,334l6.55,14.58v6.83l-6.68,4-3.78,2.28v2.82l12-3.19,3-4h5.55l3.53,4.24,3.53-2.12-6.81-10.18-2.27-10.17V328.48l3.53-6.38h9.33l7.31,7.29-3.53,12.45,9.34,15-11.35,5.31-3,10-.75,6.23-6.64,4,2.85,6.79,7-.87,1.59-5.51h5.3l5.43-3.27,1.37-5.84,8.84-1.68-2.27,5,7.56.31h4l3.27,3.48,5.54,4.86,6.32.15,7.3,1.06v-4.55l6.56-3.95,11.6-3,9.33-1.36,15.64-3.34,7.55,4.55,3.79,6.54h-7.56v4.09l-2.4,1.45,4.92,3L1306,393v-3.19l-6.82-3.65,5.56-3.33,10.85,3.49,7.81,2.28h7.06l4.54,3.95-8.58,3h-14.36v5.93l6.8,9,2.27,10.48-8.82,5.32-15.38-5L1285.34,410l-11.09-9.12-12.61-3-9.58-2.43-5.8-5.31H1243v3.64l-6-1.37-5-4.25-9.33-1.37v4.86l-8.83,2.59,1.43,8.85-4,3.9,7.31,7.75,13.11,1.21,3.78,8.05,7.32,4.4h8.82l2.52,4.71L1240,438.88l-18.16,6.68H1212l-12.61-7.45-3-5.14h-10.6l-10.59-11.85-13.62-14.89-10.08-6.07H1140.1l-7.07,6.53-9.33-2.89V393.48l-9.82-7.75,2.76-5-11.34-9.57L1101,359.76l10.34-1.36,8.82-8-14.11-8.51-37.32-19.43-18.41-2.28-14.63-9.42V306l-6.55-2.28-13.36,5L994.1,305.4,974.93,313H932.32l-48.16,6.69V323l-16.65,11.85-18.4,4.4-13.37,12,3.53,17L831.2,379.5l5.8,18.07,8.58,11.55,15.12,5.46,13.63,8.2,2.77,4.1,24.2,6.68,12.1,6.08-4.28,7.43,11.35,6.84,8.33,7.14L922,469.1l-21.18,9.41-5.55,3.34L898,497.79l-25.48,22.33L864.48,528l-18.15,2.43L818.59,543.2,812,556.26l-15.37,16.86-14.38,13.2L780,594.06v5.17l-14.37,13.52-6.45,11.19,13,7.82h10l20.59,12.4h61.81l25.64-8.38,13.36,4.92,26.73-16.09L979.72,628l17.82-3.58,18.93-13.2,19.68-19,30.46-5.36,66.82,2.68,55.32-9.17,13.73-4.7-47.15-18.55-1.11-10.51,7.8-10.52L1155.7,522l8.55-17.21,13-15,11.88-28.62,11.88-4.92,6.68,2.24-8.17,35.32-15.22,7.38v31.53l-10.58,6.36-5.38,6.16,27.84,11.4,36.75,4.69,20.06,8.5h26.73l7-4.25,14.48-2,5.57-9.62-8.16-6.7,5.19-8-20.42-2-10-6V505.43l9.84-5.92,8.73,2.13v20.57l11.88,7.15,12.62,7.6-5.2,5.37,30.46,20.56,17.07,13.43-3,13.86,9.29,5.58h-9.29l3.34,11.19h16l-23.76,21.23-7.06,14.09L1335.4,657l-12.25,12.29,5.94,7.16,21.91-3.36,30.81-15.87,48.64,2,24.5-5.38,16,9.61,10-2-8.92,13,7.44,9.84-9.3,12.29-5.18,3.14,3.34,6h13.36l-9.66,17-24.13,14.52-4.83,4.69L1439,754.73l-7.8,11-4.09,14.07,10.77,6.5,5.19-7.61,8.18-8.49V754.28l5.57-14.31,25-8.81,3.55,19.77-5.94,8,7.42,4.47h22.27l17.45-1.1,11.89-11.64V736.4l7.42-12.52,12.62-2.68,23,12.06,25.25,5.37,18.93,5.14,34.16-4.48,31.93-9.38L1700,712l6-13,10-6h16.71l-4.46-6.94-14.85-4.47V669.54l12.25,1.11h27.1v3.81l-13.36,4.47v4h17.07l7.8,7.83-8.91,5.37v3.13l5.57,3.35v4.7h-7.8l-3.15,6.59-7.8,4.7v3.69l8,2,13.37,2.23,10.77-11.85v-19.9h18.56l13.18-7.94,17.63-1.9,7.8,7.82,43.44-11.85,26.73-13.85,14.86-9,12.62-13,3.34-18.11-7.05-2.45H1914.6l3-6.49-10-7.83,51.6-15.88,21.91-4.25,29.71,11.18,14.47-.66,3.71,6.7,12.63,7.61H2049l11.14-8.51,19.68-11.83,15.6,6.69L2088,608.5l3.72,4.92,11.88-7.15,12.62-7.6,7.44,4.47-16.35,15.65-33,12.3-16.34,5.81-20.79,8.94-14.47,29.74L2014.09,695v4l20.42-12.3h13l10-11.17h10.77l13-15.2,6.68-6.71-5.56-8.72,20.42-19,36.76,3.79,4.45,9.39L2176,628.84l24.87-3.8L2209,630l3.71-9V607.6l-8.53-10.51,5.19-6.25,10,10.06,12.24-9.62V581.22l8.92-2,3.33,10.94h8.54l8.16,6.5,10.4,4.46v-10.5l5.57-7.61,11.14-4.46Zm-884.79-124-6.62-4L1383.4,441l-4.81,6.54,3.31,9.62-8.74,5.27-7.24,10.89-12.28,13.2-16.88-10.17-5.82-3.5V466l17.79-7.08,4.21-7.26,2.72-11.44,3.92-10.36,8.14-2.89h28l16,7.43Z"/><polygon class="cls-2" points="1357.33 1054.62 1368.45 1063.88 1388.31 1066.16 1401.56 1073 1412.2 1066.59 1474.41 1061.31 1511.53 1047.79 1526.9 1038.53 1533.29 1015.88 1543.46 1005.77 1536.36 994.66 1562.14 976.86 1562.14 971.87 1570.66 958.92 1567.11 955.36 1521.93 970.3 1513.67 968.18 1507.75 945.24 1527.15 937.27 1518.15 925.88 1487.64 920.32 1478.43 924.73 1469.2 919.18 1469.2 912.91 1447.44 908.36 1429.7 908.36 1420.25 907.08 1416.23 909.5 1398.49 911.35 1349.77 897.1 1321.16 900.38 1301.05 917.9 1274.56 936.41 1261.33 936.41 1258.96 947.53 1269.13 953.64 1290.88 957.36 1305.07 968.46 1326.6 967.17 1342.44 976.72 1351.19 975.43 1367.27 987.97 1367.27 1000.79 1355.68 1010.61 1373.66 1013.74 1369.63 1022.15 1353.31 1038.25 1357.33 1054.62"/><polygon class="cls-2" points="1341.02 1064.75 1345.05 1072.28 1356.15 1076.42 1345.28 1082.97 1323.05 1082.96 1317.13 1080.55 1327.07 1071.43 1341.02 1064.75"/><polygon class="cls-2" points="1939.95 641.92 1950.76 638.36 1941.7 650.12 1932.63 665.64 1929.5 679.72 1923.92 676.36 1916.25 680.97 1910.67 693.57 1910.67 699.23 1904.22 695.35 1896.04 695.35 1906.22 689.22 1912.77 674.67 1924.58 667.56 1931.59 658.3 1931.59 650.12 1939.95 641.92"/><polygon class="cls-2" points="1891.14 701.55 1896.37 702.59 1896.72 713.3 1904.39 717.92 1904.39 723.37 1890.1 721.07 1882.78 725.49 1882.79 719.4 1875.29 714.88 1868.83 717.08 1872.5 722.22 1863.96 720.44 1863.96 714.77 1875.81 711.2 1882.78 711.2 1891.14 701.55"/><polygon class="cls-2" points="1766.11 734.86 1775.85 740.74 1791.45 744.79 1789.09 752.61 1804.43 752.61 1822.04 756.5 1832.23 756.76 1843.31 743.69 1852.1 741.85 1858.73 737.03 1865.96 730.04 1865.96 724.64 1859.77 724.64 1842.69 734.93 1827.35 741.22 1820.04 741.22 1814.02 737.6 1804.88 742.37 1786.22 734.51 1766.11 734.86"/><polygon class="cls-2" points="1534.17 810.3 1536.26 819.11 1520.58 823.51 1506.98 831.71 1482.92 839.05 1471.07 842.42 1456.77 829.18 1442.48 820.58 1457.83 805.04 1465.84 802.32 1471.94 807.88 1486.4 807.88 1492.77 811.71 1509.42 808.4 1514.64 811.55 1534.17 810.3"/><polygon class="cls-2" points="1404.49 746.47 1412.5 746.27 1415.99 755.5 1422.61 780.9 1422.61 795.8 1414.25 808.19 1403.44 814.7 1394.38 807.57 1399.78 783.1 1409.36 767.89 1404.49 746.47"/><polygon class="cls-2" points="1397.16 818.48 1407.27 821.63 1421.57 838.21 1435.17 846.41 1435.17 852.69 1416.7 842.84 1404.13 835.28 1397.16 818.48"/><path class="cls-2" d="M1574.25,821.83l-10.1,1.9,12.31,5.17-3.94,7s3.83,4,5.93,3.57,13.93-2.93,13.93-2.93l6.28-8h-11.5Z"/><polygon class="cls-2" points="1620.28 778.59 1602.5 784.26 1594.48 796.23 1586.11 801.27 1602.5 805.67 1602.5 811.14 1602.5 819.74 1605.11 821.31 1608.94 811.66 1605.28 801.89 1605.28 795.49 1617.84 791.4 1625.51 786.78 1620.28 778.59"/><g class="cls-3"><polygon class="cls-2" points="1117.14 217.78 1116.88 222.8 1137.57 227.96 1148.15 219.76 1154.96 219.76 1154.96 214.6 1150.05 211.63 1141.48 213.77 1136.17 210.57 1127.29 213.49 1127.29 216.42 1117.14 217.78"/><polygon class="cls-2" points="1131.27 248.31 1139.84 253.47 1152.45 258.03 1167.08 263.49 1173.13 259.85 1180.94 256.96 1180.94 252.86 1178.3 251.26 1187.5 238.74 1190.4 231.98 1182.97 227.5 1195.08 225.99 1202.38 223.1 1194.56 218.39 1203.13 215.96 1196.08 211.71 1179.68 215.2 1169.35 223.25 1169.35 226.89 1171.49 234.71 1165.57 240.41 1158 238.59 1145.39 241.93 1149.17 246.94 1142.62 247.85 1135.56 246.03 1131.27 248.31"/><polygon class="cls-2" points="561.9 143.75 568.52 147.75 577.58 144.39 588.39 150.89 594.67 163.49 586.99 160.55 574.1 156.14 566.78 151.74 561.9 146.69 561.9 143.75"/><path class="cls-2" d="M553.15,126.58l0,3.1,5.33,1.67,7.78,6.23s6-1.26,5.48-1.56-8.3-14.86-8.3-14.86l-4.32-10.27-6.64-6.33-8.73-5.27-10.52-2.82h-8.41l1.08,2.08,7.66.84,7.44,2.73,5,1.66-2.11,2.63s7.29,6.52,7.77,6.82,6.16,9.16,6.16,9.16v3.89C557.85,126.39,553.15,126.58,553.15,126.58Z"/><path class="cls-2" d="M7.29,804.52l15.06-.31L20.79,787l8.83-14.07,19.22-6.57,16.88-1.72v-5.48L73.26,751H88.32l14.28-8.61,13-7.82,9.09,5.48,10.9-4.07,12.48-3.12L160,740.09h21.81l12.59-16.34,10.8,14.77,22.86-3.13,48.81-11.26,23.38-5.32,22.33,4.7,22.86,8.13,50.91-15,20.25-12.19h44.15l10.39-15.33L451.4,659.7l-15.06-9.08-5.19-16.26-2.6-12.83,6.23-11.88-.52-14.08-15.59-12.51V562.42l-5.18-15.64-17.14-5.95L381.8,527.69l-6.23-8.76-17.15-10.32H323.1v-8.76l-13-4.69-7.8-4.69V480.15l16.09-9.69,10.14-6.11-18.43-14.24v-5.93l27-11.58h15.06l-17.4-10.48-29.35,6.42-15.06-9.07-6.24-10.64,11.44-13.76,17.65-10.64,25.45-7.82,32.21,8.14,19.23,11.57h9.34l20.25,17.82v9.39l-7.78,4.7-5.2,11.26,3.64,2.18,10.91-6.56,7.27-8.76,16.1-9.7,54,4.38,21.81-13.76,22.35,5.31H566.2l28.57,2.51h29.08L635.28,422l-16.63,3.75,20.27,4.07s32.72,9.7,31.17,8.76S652.42,421,652.42,421l13-7.82v-6.88l-4.67-9.7,30.21,12.47,18.7,11.26h36.8l6.75-21.23V391l15.07-6.57,14-17.21H760l-11.69-7,14.79-8.91v-21l-10.9-10-20.26,7.19H708l-6.23,9.38-16.77,7H658.14l-18,10.82H626.43l-6.2-3.73,9.81-9.66,18.75-8.15-10-17.12V297.47l-11.09-6.67L641,286.53v-8.14l19.73-6.88,42.6-3.13,29.6,6.57,9.87,5.95-1.56,8.44L758.9,295l14.55-8.76v-4.69l28,4.06L816.56,279l16-2.89V263.06L801,267.76H782.79L802,259.62,794.16,240,749.56,233l-18.19-26.59h-9.86l-21.82-17.83V174.54l10.91-8.13-5.72-24.72L695,135.76V121.68l-33.76-13.13-16.61-4.39,5.19-15L645.15,77l-7.8-19.72V34.72L611.91,11.89l-34.8-6.57L554.77,0,536.06,11.26v7.2l-12.72,7.66-10.65-3.91-5.2-10.64L477.89,1.25l-9.35,5.63L461,11.42,480.48,26v5.32l-13,1.25L438.42,25,408.8,22.21,402.57,26l-8.82,8.45v6.88h-13v10l17.91,10.79H382.84l-11.56,7,27.66,4.15h43.12l12.46,16,5.71,21.58L466,141.08,454,157.65l-21.82,13.14-9.87,13.45L405.69,203l-12.46,15-31.69,6.57-64.94,21-13.49,15-10.84,14.66v16l-11,11.26-10.91,14.7-7.26,8.76L235.32,340v10.64h5.19l4.68-11.57,7.27-11.27,9.87-13.45,13.5-8.13V315l-12.46,18.15v27.2l-18.18,14.4-13,3.44,16.1,25.34,6.23,14.38,14.54,8.76L273,443.1l16.39,12.66v29.39l11.44,10.64V502l14-.93v8.75l-23.38,14.08-45.2,4.7-4.66,9.69L222.85,544l-7.27,20-10.91,28.47,5.2,32.53L109.1,685.66,72.22,702.24,44.69,725.69,15.08,747.9,0,769.5l6.23,21.89Z"/><polygon class="cls-2" points="1650.18 293.42 1647.47 290.61 1648.21 278.61 1635.18 266.91 1614.77 259.66 1600.62 254.84 1579.84 254.62 1558.69 254.62 1547.38 254.62 1543.2 248.55 1549.59 244.7 1561.65 247.51 1573.44 247.51 1585.01 242.92 1606.64 245.59 1615.26 245.59 1621.89 247.66 1621.89 251.66 1634.93 255.5 1638.38 260.55 1645.76 260.55 1654.85 267.51 1663.7 268.98 1663.7 276.68 1659.53 279.2 1659.53 285.87 1650.18 293.42"/><polygon class="cls-2" points="1570.08 883.55 1566.76 891.43 1561.7 899.51 1573.56 908.75 1584.72 923.87 1571.29 928.17 1562.76 928.17 1573.99 934.94 1579.84 941.08 1585.42 947.38 1597.27 947.38 1608.08 952.62 1608.08 970.89 1619.58 980.55 1619.58 969.01 1622.72 955.57 1628.29 952.21 1628.29 940.03 1612.08 918.73 1603.19 906.44 1577.05 906.23 1577.74 900.35 1585.06 892.59 1585.06 888.81 1570.08 883.55"/><path class="cls-2" d="M2283.26,566.47h-18.94l-18.93-20.13-25.23-21.45-29-11.63v11.85L2183,528l-10.76-6.48v-9.84l-28.22-7.6-8.54,5.15-9.65-5.82-6.32-7.38,8.91-3.58-7.79-12.29-34.9-7.6-10.76-15-3.72-10.28-8.9-5.36-22.66-11.41-11.88,3.14-5.94,9.84h-19.3V436.8l-18.94-6.49-11.51,6.93L1958.78,418l7-6-5.56-13.19-14.86-9-8.91,5.36-15.23-2.9-12.61-7.61,8.16-6.25-18.93-7.38h-8.18l-9.64-5.81h-11.89l-27.48,4v-4l22.66-9.61,29.94-10.15-1.41-18.28-7.41-9.5-14.88,1.66,4.28-8-13.6-8.2v-7l-12.62,4.55-4.54,6.69-5.55,3.33-14.12,3-18.66-6.37-26.47-4.4-19.18,6.37v12.29l-13.35,2.74,1-4.55-16.64-6.08-12.87,6.53,5.55,10,3,8.2-6.56,7.29-6-3.64,6-4.86L1708,330.45l-2.77-9h-9.33l-5.17,3.12,2.89,8.73-5.79-3.5-8.57-5.16,3.52-5.77-7.3-2.57-3.78,15-12.87,11.69-1.76,5v6.53l-10.59-4.1,6-9.42,10.34-14.42V316.34l15.63-9.42-10.84-9.26-20.42,9.87-9.85,3.5-6.55,10v7.28l-.5,9.11h-5.55L1621,324.83l-10.34-8.95-6.56-7.59-8.07,2.42-2,5.17-8.58,1.52-5.54-3.34,4.79-2.89-10.08-3.34-12.36-2.28h-5.55l-8.57-3.34-4.55-4.55-24.19-.91-9.09,4.25-4.79-4.71-3.78-8.65-3,1.81-8.32,5-8.32-5-14.12,3.05-7.83,4.71h-5l-5-9.73-7.3,2.28v4.86h-5.8l-4-12.61,10.84-10.78-3.53-9.11,3.78-2.27,7.82,12.29,10.09,9.42,11.59,1.83,11.86-1.68-3.78-18.07-12.11-13.06L1458.32,240l-7.81-8.95,7.81-4.71-20.67-8.81L1401.08,210l-18.15,2.43h-21.44l-12.36,5.46-20.42,6.53-19.67.91-21.68-2.12h-22.69l-7.57,8.81-7.82,7.13v7.6l11.6,2.42h9.33l8.83,2.44-12.61,13-3.78,8.05s-4,1.82-3.79,2.59,4.54,3.34,4.54,3.34h6.8l8.08,1.66,15.89-5.92,9.33-5.61,11.35,3.18,2.26-5.92v-6.68l16.65-8.81,24.71,1.52,9.58-2.43,9.84-5.92,11.84,4.1v5.92l-13.36,2.43L1361.25,258l-11.62,7-9.57,8.5v4.25l9.07,5.47,14.64,2.73,11.85,8.66v5.31L1361,297.05l-7.56,4.56-4-2.43v-5.62l-12.61-4.41-4,5.17-8.83,5.31-4.78-2-2.27-5.62-7.83,2.88-12.6,3.95L1285.1,303l-8.84-5.32,2.27-4.41-12.61-2.12-6.55-2.74H1250v-5l-11.61-5.78V269l4.42-2.66,11.22-2.05-5.29-3.19-8.58,1.52-6,3.64v3.34l-7.85,2.87-12.82-5.3-17.15-2.73-13.62,4.86-17.15-3.34-14.88,1.37-8.31-3.8h-7.06l-8.58-6.07-5.29,3.19,2.76,7.13v9.12l-9.32,5.61L1102,285.66l-16.39-9.87L1070,266.38h-7.58L1043,278.07l-11.35,2.27-7.4,7.8,12.87,7.75-4.46,6,12.6,4.86h5.3l4.79,4.56,24.72.3v-7.9l22.18.61,6.81,4.1,18.42-7.75,8.31,8.05v3.8l10.34-.91,18.41,4.71v6.07L1162,334l6.55,14.58v6.83l-6.68,4-3.78,2.28v2.82l12-3.19,3-4h5.55l3.53,4.24,3.53-2.12-6.81-10.18-2.27-10.17V328.48l3.53-6.38h9.33l7.31,7.29-3.53,12.45,9.34,15-11.35,5.31-3,10-.75,6.23-6.64,4,2.85,6.79,7-.87,1.59-5.51h5.3l5.43-3.27,1.37-5.84,8.84-1.68-2.27,5,7.56.31h4l3.27,3.48,5.54,4.86,6.32.15,7.3,1.06v-4.55l6.56-3.95,11.6-3,9.33-1.36,15.64-3.34,7.55,4.55,3.79,6.54h-7.56v4.09l-2.4,1.45,4.92,3L1306,393v-3.19l-6.82-3.65,5.56-3.33,10.85,3.49,7.81,2.28h7.06l4.54,3.95-8.58,3h-14.36v5.93l6.8,9,2.27,10.48-8.82,5.32-15.38-5L1285.34,410l-11.09-9.12-12.61-3-9.58-2.43-5.8-5.31H1243v3.64l-6-1.37-5-4.25-9.33-1.37v4.86l-8.83,2.59,1.43,8.85-4,3.9,7.31,7.75,13.11,1.21,3.78,8.05,7.32,4.4h8.82l2.52,4.71L1240,438.88l-18.16,6.68H1212l-12.61-7.45-3-5.14h-10.6l-10.59-11.85-13.62-14.89-10.08-6.07H1140.1l-7.07,6.53-9.33-2.89V393.48l-9.82-7.75,2.76-5-11.34-9.57L1101,359.76l10.34-1.36,8.82-8-14.11-8.51-37.32-19.43-18.41-2.28-14.63-9.42V306l-6.55-2.28-13.36,5L994.1,305.4,974.93,313H932.32l-48.16,6.69V323l-16.65,11.85-18.4,4.4-13.37,12,3.53,17L831.2,379.5l5.8,18.07,8.58,11.55,15.12,5.46,13.63,8.2,2.77,4.1,24.2,6.68,12.1,6.08-4.28,7.43,11.35,6.84,8.33,7.14L922,469.1l-21.18,9.41-5.55,3.34L898,497.79l-25.48,22.33L864.48,528l-18.15,2.43L818.59,543.2,812,556.26l-15.37,16.86-14.38,13.2L780,594.06v5.17l-14.37,13.52-6.45,11.19,13,7.82h10l20.59,12.4h61.81l25.64-8.38,13.36,4.92,26.73-16.09L979.72,628l17.82-3.58,18.93-13.2,19.68-19,30.46-5.36,66.82,2.68,55.32-9.17,13.73-4.7-47.15-18.55-1.11-10.51,7.8-10.52L1155.7,522l8.55-17.21,13-15,11.88-28.62,11.88-4.92,6.68,2.24-8.17,35.32-15.22,7.38v31.53l-10.58,6.36-5.38,6.16,27.84,11.4,36.75,4.69,20.06,8.5h26.73l7-4.25,14.48-2,5.57-9.62-8.16-6.7,5.19-8-20.42-2-10-6V505.43l9.84-5.92,8.73,2.13v20.57l11.88,7.15,12.62,7.6-5.2,5.37,30.46,20.56,17.07,13.43-3,13.86,9.29,5.58h-9.29l3.34,11.19h16l-23.76,21.23-7.06,14.09L1335.4,657l-12.25,12.29,5.94,7.16,21.91-3.36,30.81-15.87,48.64,2,24.5-5.38,16,9.61,10-2-8.92,13,7.44,9.84-9.3,12.29-5.18,3.14,3.34,6h13.36l-9.66,17-24.13,14.52-4.83,4.69L1439,754.73l-7.8,11-4.09,14.07,10.77,6.5,5.19-7.61,8.18-8.49V754.28l5.57-14.31,25-8.81,3.55,19.77-5.94,8,7.42,4.47h22.27l17.45-1.1,11.89-11.64V736.4l7.42-12.52,12.62-2.68,23,12.06,25.25,5.37,18.93,5.14,34.16-4.48,31.93-9.38L1700,712l6-13,10-6h16.71l-4.46-6.94-14.85-4.47V669.54l12.25,1.11h27.1v3.81l-13.36,4.47v4h17.07l7.8,7.83-8.91,5.37v3.13l5.57,3.35v4.7h-7.8l-3.15,6.59-7.8,4.7v3.69l8,2,13.37,2.23,10.77-11.85v-19.9h18.56l13.18-7.94,17.63-1.9,7.8,7.82,43.44-11.85,26.73-13.85,14.86-9,12.62-13,3.34-18.11-7.05-2.45H1914.6l3-6.49-10-7.83,51.6-15.88,21.91-4.25,29.71,11.18,14.47-.66,3.71,6.7,12.63,7.61H2049l11.14-8.51,19.68-11.83,15.6,6.69L2088,608.5l3.72,4.92,11.88-7.15,12.62-7.6,7.44,4.47-16.35,15.65-33,12.3-16.34,5.81-20.79,8.94-14.47,29.74L2014.09,695v4l20.42-12.3h13l10-11.17h10.77l13-15.2,6.68-6.71-5.56-8.72,20.42-19,36.76,3.79,4.45,9.39L2176,628.84l24.87-3.8L2209,630l3.71-9V607.6l-8.53-10.51,5.19-6.25,10,10.06,12.24-9.62V581.22l8.92-2,3.33,10.94h8.54l8.16,6.5,10.4,4.46v-10.5l5.57-7.61,11.14-4.46Zm-884.79-124-6.62-4L1383.4,441l-4.81,6.54,3.31,9.62-8.74,5.27-7.24,10.89-12.28,13.2-16.88-10.17-5.82-3.5V466l17.79-7.08,4.21-7.26,2.72-11.44,3.92-10.36,8.14-2.89h28l16,7.43Z"/><polygon class="cls-2" points="1357.33 1054.62 1368.45 1063.88 1388.31 1066.16 1401.56 1073 1412.2 1066.59 1474.41 1061.31 1511.53 1047.79 1526.9 1038.53 1533.29 1015.88 1543.46 1005.77 1536.36 994.66 1562.14 976.86 1562.14 971.87 1570.66 958.92 1567.11 955.36 1521.93 970.3 1513.67 968.18 1507.75 945.24 1527.15 937.27 1518.15 925.88 1487.64 920.32 1478.43 924.73 1469.2 919.18 1469.2 912.91 1447.44 908.36 1429.7 908.36 1420.25 907.08 1416.23 909.5 1398.49 911.35 1349.77 897.1 1321.16 900.38 1301.05 917.9 1274.56 936.41 1261.33 936.41 1258.96 947.53 1269.13 953.64 1290.88 957.36 1305.07 968.46 1326.6 967.17 1342.44 976.72 1351.19 975.43 1367.27 987.97 1367.27 1000.79 1355.68 1010.61 1373.66 1013.74 1369.63 1022.15 1353.31 1038.25 1357.33 1054.62"/><polygon class="cls-2" points="1341.02 1064.75 1345.05 1072.28 1356.15 1076.42 1345.28 1082.97 1323.05 1082.96 1317.13 1080.55 1327.07 1071.43 1341.02 1064.75"/><polygon class="cls-2" points="1939.95 641.92 1950.76 638.36 1941.7 650.12 1932.63 665.64 1929.5 679.72 1923.92 676.36 1916.25 680.97 1910.67 693.57 1910.67 699.23 1904.22 695.35 1896.04 695.35 1906.22 689.22 1912.77 674.67 1924.58 667.56 1931.59 658.3 1931.59 650.12 1939.95 641.92"/><polygon class="cls-2" points="1891.14 701.55 1896.37 702.59 1896.72 713.3 1904.39 717.92 1904.39 723.37 1890.1 721.07 1882.78 725.49 1882.79 719.4 1875.29 714.88 1868.83 717.08 1872.5 722.22 1863.96 720.44 1863.96 714.77 1875.81 711.2 1882.78 711.2 1891.14 701.55"/><polygon class="cls-2" points="1766.11 734.86 1775.85 740.74 1791.45 744.79 1789.09 752.61 1804.43 752.61 1822.04 756.5 1832.23 756.76 1843.31 743.69 1852.1 741.85 1858.73 737.03 1865.96 730.04 1865.96 724.64 1859.77 724.64 1842.69 734.93 1827.35 741.22 1820.04 741.22 1814.02 737.6 1804.88 742.37 1786.22 734.51 1766.11 734.86"/><polygon class="cls-2" points="1534.17 810.3 1536.26 819.11 1520.58 823.51 1506.98 831.71 1482.92 839.05 1471.07 842.42 1456.77 829.18 1442.48 820.58 1457.83 805.04 1465.84 802.32 1471.94 807.88 1486.4 807.88 1492.77 811.71 1509.42 808.4 1514.64 811.55 1534.17 810.3"/><polygon class="cls-2" points="1404.49 746.47 1412.5 746.27 1415.99 755.5 1422.61 780.9 1422.61 795.8 1414.25 808.19 1403.44 814.7 1394.38 807.57 1399.78 783.1 1409.36 767.89 1404.49 746.47"/><polygon class="cls-2" points="1397.16 818.48 1407.27 821.63 1421.57 838.21 1435.17 846.41 1435.17 852.69 1416.7 842.84 1404.13 835.28 1397.16 818.48"/><path class="cls-2" d="M1574.25,821.83l-10.1,1.9,12.31,5.17-3.94,7s3.83,4,5.93,3.57,13.93-2.93,13.93-2.93l6.28-8h-11.5Z"/><polygon class="cls-2" points="1620.28 778.59 1602.5 784.26 1594.48 796.23 1586.11 801.27 1602.5 805.67 1602.5 811.14 1602.5 819.74 1605.11 821.31 1608.94 811.66 1605.28 801.89 1605.28 795.49 1617.84 791.4 1625.51 786.78 1620.28 778.59"/></g><polygon class="cls-2" points="1357.82 715.95 1363.7 717.95 1363.7 717.95 1357.7 726.95 1348.7 730.95 1337.7 725.95 1347.73 720.78 1357.82 715.95"/><polygon class="cls-2" points="1459.47 1111.24 1466.16 1115.28 1476.88 1118.07 1475.26 1123.44 1485.8 1123.44 1497.89 1126.11 1504.9 1126.29 1512.5 1117.31 1518.55 1116.05 1523.1 1112.73 1528.06 1107.94 1528.06 1104.22 1523.81 1104.22 1512.08 1111.29 1501.54 1115.62 1496.52 1115.62 1492.38 1113.13 1486.11 1116.41 1473.29 1111 1459.47 1111.24"/><polygon class="cls-2" points="1667.74 810.39 1673.63 812.39 1673.63 812.39 1671.1 825.14 1666.66 833.13 1653.81 841.11 1644.94 835.34 1648.47 823.81 1652.78 817 1667.74 810.39"/><polygon class="cls-2" points="1566.89 1066.4 1574.32 1063.95 1568.09 1072.03 1561.86 1082.7 1559.71 1092.36 1555.88 1090.06 1550.61 1093.23 1546.78 1101.88 1546.78 1105.77 1542.35 1103.1 1536.72 1103.1 1539.7 1086.95 1547.7 1085.95 1556.33 1084.01 1561.15 1077.65 1561.15 1072.03 1566.89 1066.4"/><polygon class="cls-4" points="1117.14 217.95 1116.88 222.97 1137.57 228.13 1148.15 219.92 1154.96 219.93 1154.96 214.76 1150.05 211.8 1141.48 213.93 1136.17 210.74 1127.29 213.66 1127.29 216.59 1117.14 217.95"/><polygon class="cls-4" points="1131.27 248.31 1139.84 253.47 1152.45 258.03 1167.08 263.49 1173.13 259.85 1180.94 256.96 1180.94 252.86 1178.3 251.26 1187.5 238.74 1190.4 231.98 1182.97 227.5 1195.08 225.99 1202.38 223.1 1194.56 218.39 1203.13 215.96 1196.08 211.71 1179.68 215.2 1169.35 223.25 1169.35 226.89 1171.49 234.71 1165.57 240.41 1158 238.59 1145.39 241.93 1149.17 246.94 1142.62 247.85 1135.56 246.03 1131.27 248.31"/><polygon class="cls-4" points="561.9 143.75 568.52 147.75 577.58 144.39 588.39 150.89 594.67 163.49 586.99 160.55 574.1 156.14 566.78 151.74 561.9 146.69 561.9 143.75"/><path class="cls-4" d="M553.15,126.58l0,3.1,5.33,1.67,7.78,6.23s6-1.26,5.48-1.56-8.3-14.86-8.3-14.86l-4.32-10.27-6.64-6.33-8.73-5.27-10.52-2.82h-8.41l1.08,2.08,7.66.84,7.44,2.73,5,1.66-2.11,2.63s7.29,6.52,7.77,6.82,6.16,9.16,6.16,9.16v3.89C557.85,126.39,553.15,126.58,553.15,126.58Z"/><path class="cls-4" d="M7.29,804.52l15.06-.31L20.79,787l8.83-14.07,19.22-6.57,16.88-1.72v-5.48L73.26,751H88.32l14.28-8.61,13-7.82,9.09,5.48,10.9-4.07,12.48-3.12L160,740.09h21.81l12.59-16.34,10.8,14.77,22.86-3.13,48.81-11.26,23.38-5.32,22.33,4.7,22.86,8.13,50.91-15,20.25-12.19h44.15l10.39-15.33L451.4,659.7l-15.06-9.08-5.19-16.26-2.6-12.83,6.23-11.88-.52-14.08-15.59-12.51V562.42l-5.18-15.64-17.14-5.95L381.8,527.69l-6.23-8.76-17.15-10.32H323.1v-8.76l-13-4.69-7.8-4.69V480.15l16.09-9.69,10.14-6.11-18.43-14.24v-5.93l27-11.58h15.06l-17.4-10.48-29.35,6.42-15.06-9.07-6.24-10.64,11.44-13.76,17.65-10.64,25.45-7.82,32.21,8.14,19.23,11.57h9.34l20.25,17.82v9.39l-7.78,4.7-5.2,11.26,3.64,2.18,10.91-6.56,7.27-8.76,16.1-9.7,54,4.38,21.81-13.76,22.35,5.31H566.2l28.57,2.51h29.08L635.28,422l-16.63,3.75,20.27,4.07s32.72,9.7,31.17,8.76S652.42,421,652.42,421l13-7.82v-6.88l-4.67-9.7,30.21,12.47,18.7,11.26h36.8l6.75-21.23V391l15.07-6.57,14-17.21H760l-11.69-7,14.79-8.91v-21l-10.9-10-20.26,7.19H708l-6.23,9.38-16.77,7H658.14l-18,10.82H626.43l-6.2-3.73,9.81-9.66,18.75-8.15-10-17.12V297.47l-11.09-6.67L641,286.53v-8.14l19.73-6.88,42.6-3.13,29.6,6.57,9.87,5.95-1.56,8.44L758.9,295l14.55-8.76v-4.69l28,4.06L816.56,279l16-2.89V263.06L801,267.76H782.79L802,259.62,794.16,240,749.56,233l-18.19-26.59h-9.86l-21.82-17.83V174.54l10.91-8.13-5.72-24.72L695,135.76V121.68l-33.76-13.13-16.61-4.39,5.19-15L645.15,77l-7.8-19.72V34.72L611.91,11.89l-34.8-6.57L554.77,0,536.06,11.26v7.2l-12.72,7.66-10.65-3.91-5.2-10.64L477.89,1.25l-9.35,5.63L461,11.42,480.48,26v5.32l-13,1.25L438.42,25,408.8,22.21,402.57,26l-8.82,8.45v6.88h-13v10l17.91,10.79H382.84l-11.56,7,27.66,4.15h43.12l12.46,16,5.71,21.58L466,141.08,454,157.65l-21.82,13.14-9.87,13.45L405.69,203l-12.46,15-31.69,6.57-64.94,21-13.49,15-10.84,14.66v16l-11,11.26-10.91,14.7-7.26,8.76L235.32,340v10.64h5.19l4.68-11.57,7.27-11.27,9.87-13.45,13.5-8.13V315l-12.46,18.15v27.2l-18.18,14.4-13,3.44,16.1,25.34,6.23,14.38,14.54,8.76L273,443.1l16.39,12.66v29.39l11.44,10.64V502l14-.93v8.75l-23.38,14.08-45.2,4.7-4.66,9.69L222.85,544l-7.27,20-10.91,28.47,5.2,32.53L109.1,685.66,72.22,702.24,44.69,725.69,15.08,747.9,0,769.5l6.23,21.89Z"/><polygon class="cls-4" points="1650.18 293.42 1647.47 290.61 1648.21 278.61 1635.18 266.91 1614.77 259.66 1600.62 254.84 1579.84 254.62 1558.69 254.62 1547.38 254.62 1543.2 248.55 1549.59 244.7 1561.65 247.51 1573.44 247.51 1585.01 242.92 1606.64 245.59 1615.26 245.59 1621.89 247.66 1621.89 251.66 1634.93 255.5 1638.38 260.55 1645.76 260.55 1654.85 267.51 1663.7 268.98 1663.7 276.68 1659.53 279.2 1659.53 285.87 1650.18 293.42"/><polygon class="cls-4" points="1570.08 883.55 1566.76 891.43 1561.7 899.51 1573.56 908.75 1584.72 923.87 1571.29 928.17 1562.76 928.17 1573.99 934.94 1579.84 941.08 1585.42 947.38 1597.27 947.38 1608.08 952.62 1608.08 970.89 1619.58 980.55 1619.58 969.01 1622.72 955.57 1628.29 952.21 1628.29 940.03 1612.08 918.73 1603.19 906.44 1577.05 906.23 1577.74 900.35 1585.06 892.59 1585.06 888.81 1570.08 883.55"/><path class="cls-4" d="M2283.26,566.47h-18.94l-18.93-20.13-25.23-21.45-29-11.63v11.85L2183,528l-10.76-6.48v-9.84l-28.22-7.6-8.54,5.15-9.65-5.82-6.32-7.38,8.91-3.58-7.79-12.29-34.9-7.6-10.76-15-3.72-10.28-8.9-5.36-22.66-11.41-11.88,3.14-5.94,9.84h-19.3V436.8l-18.94-6.49-11.51,6.93L1958.78,418l7-6-5.56-13.19-14.86-9-8.91,5.36-15.23-2.9-12.61-7.61,8.16-6.25-18.93-7.38h-8.18l-9.64-5.81h-11.89l-27.48,4v-4l22.66-9.61,29.94-10.15-1.41-18.28-7.41-9.5-14.88,1.66,4.28-8-13.6-8.2v-7l-12.62,4.55-4.54,6.69-5.55,3.33-14.12,3-18.66-6.37-26.47-4.4-19.18,6.37v12.29l-13.35,2.74,1-4.55-16.64-6.08-12.87,6.53,5.55,10,3,8.2-6.56,7.29-6-3.64,6-4.86L1708,330.45l-2.77-9h-9.33l-5.17,3.12,2.89,8.73-5.79-3.5-8.57-5.16,3.52-5.77-7.3-2.57-3.78,15-12.87,11.69-1.76,5v6.53l-10.59-4.1,6-9.42,10.34-14.42V316.34l15.63-9.42-10.84-9.26-20.42,9.87-9.85,3.5-6.55,10v7.28l-.5,9.11h-5.55L1621,324.83l-10.34-8.95-6.56-7.59-8.07,2.42-2,5.17-8.58,1.52-5.54-3.34,4.79-2.89-10.08-3.34-12.36-2.28h-5.55l-8.57-3.34-4.55-4.55-24.19-.91-9.09,4.25-4.79-4.71-3.78-8.65-3,1.81-8.32,5-8.32-5-14.12,3.05-7.83,4.71h-5l-5-9.73-7.3,2.28v4.86h-5.8l-4-12.61,10.84-10.78-3.53-9.11,3.78-2.27,7.82,12.29,10.09,9.42,11.59,1.83,11.86-1.68-3.78-18.07-12.11-13.06L1458.32,240l-7.81-8.95,7.81-4.71-20.67-8.81L1401.08,210l-18.15,2.43h-21.44l-12.36,5.46-20.42,6.53-19.67.91-21.68-2.12h-22.69l-7.57,8.81-7.82,7.13v7.6l11.6,2.42h9.33l8.83,2.44-12.61,13-3.78,8.05s-4,1.82-3.79,2.59,4.54,3.34,4.54,3.34h6.8l8.08,1.66,15.89-5.92,9.33-5.61,11.35,3.18,2.26-5.92v-6.68l16.65-8.81,24.71,1.52,9.58-2.43,9.84-5.92,11.84,4.1v5.92l-13.36,2.43L1361.25,258l-11.62,7-9.57,8.5v4.25l9.07,5.47,14.64,2.73,11.85,8.66v5.31L1361,297.05l-7.56,4.56-4-2.43v-5.62l-12.61-4.41-4,5.17-8.83,5.31-4.78-2-2.27-5.62-7.83,2.88-12.6,3.95L1285.1,303l-8.84-5.32,2.27-4.41-12.61-2.12-6.55-2.74H1250v-5l-11.61-5.78V269l4.42-2.66,11.22-2.05-5.29-3.19-8.58,1.52-6,3.64v3.34l-7.85,2.87-12.82-5.3-17.15-2.73-13.62,4.86-17.15-3.34-14.88,1.37-8.31-3.8h-7.06l-8.58-6.07-5.29,3.19,2.76,7.13v9.12l-9.32,5.61L1102,285.66l-16.39-9.87L1070,266.38h-7.58L1043,278.07l-11.35,2.27-7.4,7.8,12.87,7.75-4.46,6,12.6,4.86h5.3l4.79,4.56,24.72.3v-7.9l22.18.61,6.81,4.1,18.42-7.75,8.31,8.05v3.8l10.34-.91,18.41,4.71v6.07L1162,334l6.55,14.58v6.83l-6.68,4-3.78,2.28v2.82l12-3.19,3-4h5.55l3.53,4.24,3.53-2.12-6.81-10.18-2.27-10.17V328.48l3.53-6.38h9.33l7.31,7.29-3.53,12.45,9.34,15-11.35,5.31-3,10-.75,6.23-6.64,4,2.85,6.79,7-.87,1.59-5.51h5.3l5.43-3.27,1.37-5.84,8.84-1.68-2.27,5,7.56.31h4l3.27,3.48,5.54,4.86,6.32.15,7.3,1.06v-4.55l6.56-3.95,11.6-3,9.33-1.36,15.64-3.34,7.55,4.55,3.79,6.54h-7.56v4.09l-2.4,1.45,4.92,3L1306,393v-3.19l-6.82-3.65,5.56-3.33,10.85,3.49,7.81,2.28h7.06l4.54,3.95-8.58,3h-14.36v5.93l6.8,9,2.27,10.48-8.82,5.32-15.38-5L1285.34,410l-11.09-9.12-12.61-3-9.58-2.43-5.8-5.31H1243v3.64l-6-1.37-5-4.25-9.33-1.37v4.86l-8.83,2.59,1.43,8.85-4,3.9,7.31,7.75,13.11,1.21,3.78,8.05,7.32,4.4h8.82l2.52,4.71L1240,438.88l-18.16,6.68H1212l-12.61-7.45-3-5.14h-10.6l-10.59-11.85-13.62-14.89-10.08-6.07H1140.1l-7.07,6.53-9.33-2.89V393.48l-9.82-7.75,2.76-5-11.34-9.57L1101,359.76l10.34-1.36,8.82-8-14.11-8.51-37.32-19.43-18.41-2.28-14.63-9.42V306l-6.55-2.28-13.36,5L994.1,305.4,974.93,313H932.32l-48.16,6.69V323l-16.65,11.85-18.4,4.4-13.37,12,3.53,17L831.2,379.5l5.8,18.07,8.58,11.55,15.12,5.46,13.63,8.2,2.77,4.1,24.2,6.68,12.1,6.08-4.28,7.43,11.35,6.84,8.33,7.14L922,469.1l-21.18,9.41-5.55,3.34L898,497.79l-25.48,22.33L864.48,528l-18.15,2.43L818.59,543.2,812,556.26l-15.37,16.86-14.38,13.2L780,594.06v5.17l-14.37,13.52-6.45,11.19,13,7.82h10l20.59,12.4h61.81l25.64-8.38,13.36,4.92,26.73-16.09L979.72,628l17.82-3.58,18.93-13.2,19.68-19,30.46-5.36,66.82,2.68,55.32-9.17,13.73-4.7-47.15-18.55-1.11-10.51,7.8-10.52L1155.7,522l8.55-17.21,13-15,11.88-28.62,11.88-4.92,6.68,2.24-8.17,35.32-15.22,7.38v31.53l-10.58,6.36-5.38,6.16,27.84,11.4,36.75,4.69,20.06,8.5h26.73l7-4.25,14.48-2,5.57-9.62-8.16-6.7,5.19-8-20.42-2-10-6V505.43l9.84-5.92,8.73,2.13v20.57l11.88,7.15,12.62,7.6-5.2,5.37,30.46,20.56,17.07,13.43-3,13.86,9.29,5.58h-9.29l3.34,11.19h16l-23.76,21.23-7.06,14.09L1335.4,657l-12.25,12.29,5.94,7.16,21.91-3.36,30.81-15.87,48.64,2,24.5-5.38,16,9.61,10-2-8.92,13,7.44,9.84-9.3,12.29-5.18,3.14,3.34,6h13.36l-9.66,17-24.13,14.52-4.83,4.69L1439,754.73l-7.8,11-4.09,14.07,10.77,6.5,5.19-7.61,8.18-8.49V754.28l5.57-14.31,25-8.81,3.55,19.77-5.94,8,7.42,4.47h22.27l17.45-1.1,11.89-11.64V736.4l7.42-12.52,12.62-2.68,23,12.06,25.25,5.37,18.93,5.14,34.16-4.48,31.93-9.38L1700,712l6-13,10-6h16.71l-4.46-6.94-14.85-4.47V669.54l12.25,1.11h27.1v3.81l-13.36,4.47v4h17.07l7.8,7.83-8.91,5.37v3.13l5.57,3.35v4.7h-7.8l-3.15,6.59-7.8,4.7v3.69l8,2,13.37,2.23,10.77-11.85v-19.9h18.56l13.18-7.94,17.63-1.9,7.8,7.82,43.44-11.85,26.73-13.85,14.86-9,12.62-13,3.34-18.11-7.05-2.45H1914.6l3-6.49-10-7.83,51.6-15.88,21.91-4.25,29.71,11.18,14.47-.66,3.71,6.7,12.63,7.61H2049l11.14-8.51,19.68-11.83,15.6,6.69L2088,608.5l3.72,4.92,11.88-7.15,12.62-7.6,7.44,4.47-16.35,15.65-33,12.3-16.34,5.81-20.79,8.94-14.47,29.74L2014.09,695v4l20.42-12.3h13l10-11.17h10.77l13-15.2,6.68-6.71-5.56-8.72,20.42-19,36.76,3.79,4.45,9.39L2176,628.84l24.87-3.8L2209,630l3.71-9V607.6l-8.53-10.51,5.19-6.25,10,10.06,12.24-9.62V581.22l8.92-2,3.33,10.94h8.54l8.16,6.5,10.4,4.46v-10.5l5.57-7.61,11.14-4.46Zm-884.79-124-6.62-4L1383.4,441l-4.81,6.54,3.31,9.62-8.74,5.27-7.24,10.89-12.28,13.2-16.88-10.17-5.82-3.5V466l17.79-7.08,4.21-7.26,2.72-11.44,3.92-10.36,8.14-2.89h28l16,7.43Z"/><polygon class="cls-4" points="1357.33 1054.62 1368.45 1063.88 1388.31 1066.16 1401.56 1073 1412.2 1066.59 1474.41 1061.31 1511.53 1047.79 1526.9 1038.53 1533.29 1015.88 1543.46 1005.77 1536.36 994.66 1562.14 976.86 1562.14 971.87 1570.66 958.92 1567.11 955.36 1521.93 970.3 1513.67 968.18 1507.75 945.24 1527.15 937.27 1518.15 925.88 1487.64 920.32 1478.43 924.73 1469.2 919.18 1469.2 912.91 1447.44 908.36 1429.7 908.36 1420.25 907.08 1416.23 909.5 1398.49 911.35 1349.77 897.1 1321.16 900.38 1301.05 917.9 1274.56 936.41 1261.33 936.41 1258.96 947.53 1269.13 953.64 1290.88 957.36 1305.07 968.46 1326.6 967.17 1342.44 976.72 1351.19 975.43 1367.27 987.97 1367.27 1000.79 1355.68 1010.61 1373.66 1013.74 1369.63 1022.15 1353.31 1038.25 1357.33 1054.62"/><polygon class="cls-4" points="1459.47 1111.24 1466.16 1115.28 1476.88 1118.07 1475.26 1123.44 1485.8 1123.44 1497.89 1126.11 1504.9 1126.29 1512.5 1117.31 1518.55 1116.05 1523.1 1112.73 1528.06 1107.94 1528.06 1104.22 1523.81 1104.22 1512.08 1111.29 1501.54 1115.62 1496.52 1115.62 1492.38 1113.13 1486.11 1116.41 1473.29 1111 1459.47 1111.24"/><polygon class="cls-4" points="1566.89 1066.4 1574.32 1063.95 1568.09 1072.03 1561.86 1082.7 1559.71 1092.36 1555.88 1090.06 1550.61 1093.23 1546.78 1101.88 1546.78 1105.77 1542.35 1103.1 1536.72 1103.1 1539.7 1086.95 1547.7 1085.95 1556.33 1084.01 1561.15 1077.65 1561.15 1072.03 1566.89 1066.4"/><polygon class="cls-4" points="1341.02 1064.75 1345.05 1072.28 1356.15 1076.42 1345.28 1082.97 1323.05 1082.96 1317.13 1080.55 1327.07 1071.43 1341.02 1064.75"/><polygon class="cls-4" points="1939.95 641.92 1950.76 638.36 1941.7 650.12 1932.63 665.64 1929.5 679.72 1923.92 676.36 1916.25 680.97 1910.67 693.57 1910.67 699.23 1904.22 695.35 1896.04 695.35 1906.22 689.22 1912.77 674.67 1924.58 667.56 1931.59 658.3 1931.59 650.12 1939.95 641.92"/><polygon class="cls-4" points="1891.14 701.55 1896.37 702.59 1896.72 713.3 1904.39 717.92 1904.39 723.37 1890.1 721.07 1882.78 725.49 1882.79 719.4 1875.29 714.88 1868.83 717.08 1872.5 722.22 1863.96 720.44 1863.96 714.77 1875.81 711.2 1882.78 711.2 1891.14 701.55"/><polygon class="cls-4" points="1766.11 734.86 1775.85 740.74 1791.45 744.79 1789.09 752.61 1804.43 752.61 1822.04 756.5 1832.23 756.76 1843.31 743.69 1852.1 741.85 1858.73 737.03 1865.96 730.04 1865.96 724.64 1859.77 724.64 1842.69 734.93 1827.35 741.22 1820.04 741.22 1814.02 737.6 1804.88 742.37 1786.22 734.51 1766.11 734.86"/><polygon class="cls-4" points="1534.17 810.3 1536.26 819.11 1520.58 823.51 1506.98 831.71 1482.92 839.05 1471.07 842.42 1456.77 829.18 1442.48 820.58 1457.83 805.04 1465.84 802.32 1471.94 807.88 1486.4 807.88 1492.77 811.71 1509.42 808.4 1514.64 811.55 1534.17 810.3"/><polygon class="cls-4" points="1404.49 746.47 1412.5 746.27 1415.99 755.5 1422.61 780.9 1422.61 795.8 1414.25 808.19 1403.44 814.7 1394.38 807.57 1399.78 783.1 1409.36 767.89 1404.49 746.47"/><polygon class="cls-4" points="1357.82 715.95 1363.7 717.95 1363.7 717.95 1357.7 726.95 1348.7 730.95 1337.7 725.95 1347.73 720.78 1357.82 715.95"/><polygon class="cls-4" points="1397.16 818.48 1407.27 821.63 1421.57 838.21 1435.17 846.41 1435.17 852.69 1416.7 842.84 1404.13 835.28 1397.16 818.48"/><path class="cls-4" d="M1574.25,821.83l-10.1,1.9,12.31,5.17-3.94,7s3.83,4,5.93,3.57,13.93-2.93,13.93-2.93l6.28-8h-11.5Z"/><polygon class="cls-4" points="1620.28 778.59 1602.5 784.26 1594.48 796.23 1586.11 801.27 1602.5 805.67 1602.5 811.14 1602.5 819.74 1605.11 821.31 1608.94 811.66 1605.28 801.89 1605.28 795.49 1617.84 791.4 1625.51 786.78 1620.28 778.59"/><polygon class="cls-4" points="1667.74 810.39 1673.63 812.39 1673.63 812.39 1671.1 825.14 1666.66 833.13 1653.81 841.11 1644.94 835.34 1648.47 823.81 1652.78 817 1667.74 810.39"/><polygon class="cls-4" points="993.08 648.09 1005.34 644.73 1020.56 649.43 1053.98 649.43 1053.98 653.23 1030.95 664.64 969.32 680.73 958.56 677.82 952.25 677.82 952.25 668.88 958.38 665.19 963.38 658.37 972.3 656.58 987.79 654.39 993.08 648.09"/></g></g></svg>